<svg xmlns="http://www.w3.org/2000/svg" xmlns:xlink="http://www.w3.org/1999/xlink" width="265.07" height="64.24" viewBox="0 0 265.07 64.24">
  <defs>
    <linearGradient id="linear-gradient" x1="0.5" x2="0.5" y2="1" gradientUnits="objectBoundingBox">
      <stop offset="0" stop-color="#c61818"/>
      <stop offset="0.183" stop-color="#c61818"/>
      <stop offset="1" stop-color="#fdb153"/>
    </linearGradient>
    <linearGradient id="linear-gradient-2" x1="0.5" y1="1" x2="0.5" gradientUnits="objectBoundingBox">
      <stop offset="0" stop-color="#c50048"/>
      <stop offset="0.171" stop-color="#bc0146"/>
      <stop offset="0.446" stop-color="#a50540"/>
      <stop offset="0.789" stop-color="#7e0a37"/>
      <stop offset="1" stop-color="#630e31"/>
    </linearGradient>
    <linearGradient id="linear-gradient-3" x1="0.5" x2="0.5" y2="1" gradientUnits="objectBoundingBox">
      <stop offset="0" stop-color="#fdb153"/>
      <stop offset="0.111" stop-color="#faa852"/>
      <stop offset="0.296" stop-color="#f28f51"/>
      <stop offset="0.53" stop-color="#e5664e"/>
      <stop offset="0.802" stop-color="#d32d4b"/>
      <stop offset="1" stop-color="#c50048"/>
    </linearGradient>
    <linearGradient id="linear-gradient-4" y1="0.5" x2="1" y2="0.5" gradientUnits="objectBoundingBox">
      <stop offset="0.403" stop-color="#c50048"/>
      <stop offset="1" stop-color="#630e31"/>
    </linearGradient>
    <linearGradient id="linear-gradient-5" y1="0.5" x2="1" y2="0.5" gradientUnits="objectBoundingBox">
      <stop offset="0" stop-color="#891f1f"/>
      <stop offset="0.387" stop-color="#c61818"/>
      <stop offset="1" stop-color="#fdb153"/>
    </linearGradient>
  </defs>
  <g id="Group_4" data-name="Group 4" transform="translate(-61.9 -369)">
    <g id="Group_3" data-name="Group 3" transform="translate(-120.068 213.75)">
      <path id="Path_1" data-name="Path 1" d="M125,166.193,159.8,105.9l34.8,60.293Z" transform="translate(56.968 49.35)" fill="url(#linear-gradient)"/>
      <path id="Path_2" data-name="Path 2" d="M125,217.174,162.059,183.4,179.1,217.174Z" transform="translate(56.968 -1.631)" fill="url(#linear-gradient-2)"/>
      <path id="Path_3" data-name="Path 3" d="M233.3,183.4l32.542,33.774h-15.5Z" transform="translate(-14.273 -1.631)" fill="url(#linear-gradient-3)"/>
      <path id="Path_4" data-name="Path 4" d="M190.674,183.4,168.5,217.174h39.214Z" transform="translate(28.353 -1.631)" fill="url(#linear-gradient-4)"/>
      <path id="Path_5" data-name="Path 5" d="M226.7,105.9l2.258,26.519L261.5,166.193Z" transform="translate(-9.932 49.35)" fill="url(#linear-gradient-5)"/>
      <path id="Path_6" data-name="Path 6" d="M226.525,183.4,223,217.174l13.653-13.653" transform="translate(-7.498 -1.631)" fill="none" stroke="#c50048" stroke-miterlimit="10" stroke-width="0.5"/>
      <path id="Path_7" data-name="Path 7" d="M207.714,217.174l3.422-9.923L190.674,183.4,168.5,217.174l32.3-13.653" transform="translate(28.353 -1.631)" fill="none" stroke="#fff68e" stroke-miterlimit="10" stroke-width="0.5"/>
      <path id="Path_8" data-name="Path 8" d="M193.3,154.822l13.687,6.673,6.467-11.395" transform="translate(12.039 20.275)" fill="none" stroke="#fdb153" stroke-miterlimit="10" stroke-width="0.5"/>
    </g>
    <path id="Path_10" data-name="Path 10" d="M.96-10.62C.96-4.29,5.13.15,11.49.15c5.31,0,9.09-3.06,10.14-7.86H15.3a4.135,4.135,0,0,1-3.9,2.46c-2.7,0-4.47-2.1-4.47-5.37,0-3.24,1.77-5.34,4.47-5.34a4.135,4.135,0,0,1,3.9,2.46h6.33c-1.05-4.8-4.83-7.86-10.14-7.86C5.13-21.36.96-16.92.96-10.62Zm44.43-.03A10.567,10.567,0,0,0,34.56-21.48,10.609,10.609,0,0,0,23.7-10.65,10.634,10.634,0,0,0,34.56.21,10.609,10.609,0,0,0,45.39-10.65Zm-15.69,0c0-3.33,1.8-5.43,4.86-5.43,3.03,0,4.86,2.1,4.86,5.43,0,3.27-1.83,5.4-4.86,5.4C31.5-5.25,29.7-7.38,29.7-10.65Zm32.04-10.5V-9.18L53.91-21.15H48.03V0h5.88V-11.82L61.74,0h5.88V-21.15ZM86.85-6.42c0-6.78-10.17-5.76-10.17-8.91a1.4,1.4,0,0,1,1.56-1.5,1.815,1.815,0,0,1,1.95,1.92h6.39c-.21-4.2-3.39-6.57-8.25-6.57-4.47,0-7.92,2.22-7.92,6.36-.09,7.35,10.17,5.76,10.2,9.15,0,.99-.81,1.53-1.86,1.53a2,2,0,0,1-2.13-2.13H70.35c.24,4.53,3.9,6.78,8.61,6.78C83.97.21,86.85-2.7,86.85-6.42Zm2.64-2.46c0,6.03,3.84,9.09,8.94,9.09,5.07,0,9.27-3.06,9.27-9.09V-21.15h-5.88V-8.88c0,2.19-1.05,3.57-3.27,3.57s-3.21-1.38-3.21-3.57V-21.15H89.49Zm21.45-12.27V0h12.45V-4.5h-6.57V-21.15Zm13.56,4.68h5.58V0h5.88V-16.47h5.64v-4.68H124.5ZM143.79,0h5.88V-21.15h-5.88Zm18.78-5.88-4.8-15.27h-6.3L158.79,0h7.53l7.29-21.15h-6.27Zm26.4-15.27H175.44V0h13.53V-4.71h-7.65V-8.52h6.75v-4.47h-6.75v-3.45h7.65Z" transform="translate(138 411)" fill="#292929"/>
    <path id="Path_9" data-name="Path 9" d="M.768-5.6A5.408,5.408,0,0,0,6.24.1a5.18,5.18,0,0,0,5.152-3.36H10.08A3.912,3.912,0,0,1,6.24-.88C3.792-.88,1.92-2.688,1.92-5.6c0-2.928,1.872-4.736,4.32-4.736A3.892,3.892,0,0,1,10.08-7.92h1.312A5.165,5.165,0,0,0,6.24-11.312,5.422,5.422,0,0,0,.768-5.6Zm13.968.72c0-2.192,1.232-2.848,2.688-2.848h.3V-8.9a3.009,3.009,0,0,0-2.992,1.712V-8.736h-1.12V0h1.12Zm8.4-3.024a2.857,2.857,0,0,1,3.04,3.056H20.032A3.016,3.016,0,0,1,23.136-7.9Zm4.048,5.136H26A2.7,2.7,0,0,1,23.184-.816a3.055,3.055,0,0,1-3.152-3.12H27.28a7.659,7.659,0,0,0,.032-.88,3.927,3.927,0,0,0-4.128-4.048,4.14,4.14,0,0,0-4.288,4.5,4.165,4.165,0,0,0,4.288,4.5A3.84,3.84,0,0,0,27.184-2.768Zm1.664-1.616c0,2.736,1.776,4.512,4.16,4.512A3.691,3.691,0,0,0,36.48-1.936V0H37.6V-8.736H36.48v1.92a3.646,3.646,0,0,0-3.456-2.048A4.127,4.127,0,0,0,28.848-4.384Zm7.632.016a3.255,3.255,0,0,1-3.248,3.52,3.225,3.225,0,0,1-3.248-3.536,3.19,3.19,0,0,1,3.248-3.5A3.255,3.255,0,0,1,36.48-4.368Zm4,2C40.48-.624,41.3,0,42.816,0h1.2V-.96H42.992c-1.008,0-1.376-.336-1.376-1.408V-7.792h2.4v-.944h-2.4v-2.192H40.48v2.192H39.264v.944H40.48Zm9.1-5.536a2.857,2.857,0,0,1,3.04,3.056H46.48A3.016,3.016,0,0,1,49.584-7.9Zm4.048,5.136H52.448A2.7,2.7,0,0,1,49.632-.816a3.055,3.055,0,0,1-3.152-3.12h7.248a7.658,7.658,0,0,0,.032-.88,3.927,3.927,0,0,0-4.128-4.048,4.14,4.14,0,0,0-4.288,4.5,4.165,4.165,0,0,0,4.288,4.5A3.84,3.84,0,0,0,53.632-2.768ZM61.3-6.816v-1.92h-1.1V4.128h1.1V-1.92A3.732,3.732,0,0,0,64.768.128c2.384,0,4.16-1.776,4.16-4.512s-1.776-4.48-4.16-4.48A3.706,3.706,0,0,0,61.3-6.816Zm6.5,2.432A3.225,3.225,0,0,1,64.544-.848,3.264,3.264,0,0,1,61.3-4.368a3.264,3.264,0,0,1,3.248-3.52A3.19,3.19,0,0,1,67.792-4.384ZM74.72-7.9a2.857,2.857,0,0,1,3.04,3.056H71.616A3.016,3.016,0,0,1,74.72-7.9Zm4.048,5.136H77.584A2.7,2.7,0,0,1,74.768-.816a3.055,3.055,0,0,1-3.152-3.12h7.248a7.659,7.659,0,0,0,.032-.88,3.927,3.927,0,0,0-4.128-4.048,4.14,4.14,0,0,0-4.288,4.5,4.165,4.165,0,0,0,4.288,4.5A3.84,3.84,0,0,0,78.768-2.768Zm3.3-2.112c0-2.192,1.232-2.848,2.688-2.848h.3V-8.9a3.009,3.009,0,0,0-2.992,1.712V-8.736h-1.12V0h1.12ZM87.024,0h1.12V-7.792h2.032v-.944H88.144v-.608c0-1.264.48-1.808,1.968-1.808v-.96c-2.208,0-3.088.9-3.088,2.768v.608H85.808v.944h1.216Zm8.64-7.9A2.857,2.857,0,0,1,98.7-4.848H92.56A3.016,3.016,0,0,1,95.664-7.9Zm4.048,5.136H98.528A2.7,2.7,0,0,1,95.712-.816a3.055,3.055,0,0,1-3.152-3.12h7.248a7.659,7.659,0,0,0,.032-.88,3.927,3.927,0,0,0-4.128-4.048,4.14,4.14,0,0,0-4.288,4.5,4.165,4.165,0,0,0,4.288,4.5A3.84,3.84,0,0,0,99.712-2.768Zm1.664-1.6a4.137,4.137,0,0,0,4.24,4.5,3.828,3.828,0,0,0,4.016-2.976h-1.2a2.655,2.655,0,0,1-2.816,2.032c-1.712,0-3.1-1.184-3.1-3.552S103.9-7.9,105.616-7.9a2.661,2.661,0,0,1,2.816,2.016h1.2a3.771,3.771,0,0,0-4.016-2.976A4.137,4.137,0,0,0,101.376-4.368Zm10.64,2c0,1.744.816,2.368,2.336,2.368h1.2V-.96h-1.024c-1.008,0-1.376-.336-1.376-1.408V-7.792h2.4v-.944h-2.4v-2.192h-1.136v2.192H110.8v.944h1.216ZM122.88-6.8v-5.04h-1.1V0h1.1V-1.92A3.671,3.671,0,0,0,126.352.128c2.384,0,4.16-1.776,4.16-4.512s-1.76-4.48-4.16-4.48A3.707,3.707,0,0,0,122.88-6.8Zm6.5,2.416a3.225,3.225,0,0,1-3.248,3.536,3.264,3.264,0,0,1-3.248-3.52,3.264,3.264,0,0,1,3.248-3.52A3.19,3.19,0,0,1,129.376-4.384Zm10.768-4.352h-1.12v4.752c0,2.128-1.136,3.152-2.768,3.152-1.6,0-2.656-.992-2.656-2.928V-8.736h-1.1v5.1c0,2.56,1.568,3.776,3.552,3.776a3.157,3.157,0,0,0,2.976-1.68V0h1.12Zm8.608,6.416c-.048-3.088-5.216-1.824-5.216-4.192,0-.768.736-1.392,1.9-1.392a1.866,1.866,0,0,1,2.112,1.712h1.12c-.1-1.68-1.328-2.672-3.2-2.672-1.84,0-3.072,1.072-3.072,2.368,0,3.28,5.248,2.016,5.248,4.176,0,.832-.7,1.5-1.952,1.5-1.424,0-2.256-.688-2.352-1.648h-1.152c.144,1.6,1.536,2.592,3.52,2.592C147.52.128,148.752-.912,148.752-2.32ZM150.864,0h1.12V-8.736h-1.12Zm.56-10.384a.813.813,0,0,0,.816-.832.8.8,0,0,0-.816-.816.8.8,0,0,0-.816.816A.813.813,0,0,0,151.424-10.384ZM161.072,0h1.1V-5.12c0-2.56-1.568-3.776-3.552-3.776a3.192,3.192,0,0,0-2.976,1.648V-8.736h-1.12V0h1.12V-4.768c0-2.128,1.136-3.152,2.768-3.152,1.6,0,2.656.992,2.656,2.928Zm7.312-7.9a2.857,2.857,0,0,1,3.04,3.056H165.28A3.016,3.016,0,0,1,168.384-7.9Zm4.048,5.136h-1.184a2.7,2.7,0,0,1-2.816,1.952,3.055,3.055,0,0,1-3.152-3.12h7.248a7.656,7.656,0,0,0,.032-.88,3.927,3.927,0,0,0-4.128-4.048,4.14,4.14,0,0,0-4.288,4.5,4.165,4.165,0,0,0,4.288,4.5A3.84,3.84,0,0,0,172.432-2.768Zm8.224.448c-.048-3.088-5.216-1.824-5.216-4.192,0-.768.736-1.392,1.9-1.392a1.866,1.866,0,0,1,2.112,1.712h1.12c-.1-1.68-1.328-2.672-3.2-2.672-1.84,0-3.072,1.072-3.072,2.368,0,3.28,5.248,2.016,5.248,4.176,0,.832-.7,1.5-1.952,1.5-1.424,0-2.256-.688-2.352-1.648H174.1c.144,1.6,1.536,2.592,3.52,2.592C179.424.128,180.656-.912,180.656-2.32Zm8.16,0c-.048-3.088-5.216-1.824-5.216-4.192,0-.768.736-1.392,1.9-1.392a1.866,1.866,0,0,1,2.112,1.712h1.12c-.1-1.68-1.328-2.672-3.2-2.672-1.84,0-3.072,1.072-3.072,2.368,0,3.28,5.248,2.016,5.248,4.176,0,.832-.7,1.5-1.952,1.5-1.424,0-2.256-.688-2.352-1.648h-1.152c.144,1.6,1.536,2.592,3.52,2.592C187.584.128,188.816-.912,188.816-2.32Z" transform="translate(138 429.112)" fill="#aaa"/>
  </g>
</svg>
